<?xml version="1.0" encoding="UTF-8"?>
<svg id="a" data-name="Layer 1" xmlns="http://www.w3.org/2000/svg" viewBox="0 0 776 776">
  <defs>
    <style>
      .b {
        fill: #000;
        stroke-width: 0px;
      }
    </style>
  </defs>
  <path class="b" d="M745.49,236.96c-19.54-46.21-47.52-87.7-83.14-123.32s-77.11-63.59-123.32-83.14C491.18,10.26,440.36,0,388,0s-103.18,10.26-151.04,30.51c-46.21,19.54-87.7,47.51-123.32,83.14s-63.59,77.11-83.14,123.32C10.26,284.82,0,335.64,0,388s10.26,103.18,30.51,151.04c19.54,46.21,47.52,87.7,83.14,123.32s77.11,63.59,123.32,83.14c47.86,20.24,98.68,30.51,151.04,30.51s103.18-10.26,151.04-30.51c46.21-19.54,87.7-47.51,123.32-83.14s63.59-77.11,83.14-123.32c20.24-47.86,30.51-98.68,30.51-151.04s-10.26-103.18-30.51-151.04ZM76,388c0-36.42,6.29-71.39,17.81-103.91,46.52,17.25,104.3,47.97,156.67,102.46,25.16,26.18,44.68,53.36,59.86,79.51l-.05.03c.78,1.28,1.53,2.56,2.28,3.84,3,5.29,5.82,10.54,8.47,15.72,24.57,49.51,29.09,96.77,29.7,119.02,0,1.13,0,2.26,0,3.39-.02,2.08-.02,3.92,0,5.5,0,10.96,0,21.96.01,32.88-21.44-42.84-51.98-92.94-97.83-140.84-64.34-67.22-138.73-96.85-176.77-108.43-.09-3.05-.15-6.11-.15-9.19ZM426.75,647.84c0-11.3-.01-22.67-.01-34.01h.06c.03-2.15.03-4.81-.03-7.92.47-21.11,4.46-67.21,27.73-116.14,9.02-18.11,19.33-35.54,30.88-52.18,5.68-8.18,21.12-29.53,41.78-51.03,51.83-53.93,108.95-84.56,155.22-101.91,11.4,32.36,17.62,67.15,17.62,103.36,0,3.3-.07,6.59-.17,9.87-38.66,12.04-111.44,41.81-174.55,107.74-46.35,48.42-77.05,99.08-98.53,142.23ZM388,76c108.64,0,204.47,55.83,260.36,140.29-53.26,20.94-117.47,56.71-175.99,117.6-24.44,25.43-42.7,50.68-49.42,60.35-7.33,10.56-14.22,21.4-20.69,32.47h0c-4.95,8.17-9.43,16.36-13.48,24.51-.09-.17-.17-.34-.26-.5-3.12-6.25-6.49-12.52-10.14-18.79-18.25-32.13-42.06-65.73-73.1-98.03-59-61.39-123.78-97.24-177.3-118.11,55.94-84.18,151.6-139.78,260.03-139.78ZM91.08,483.85c31.08,13.79,71.15,36.94,106.93,74.32,39.99,41.78,66.52,85.45,85.56,123.84-91.01-32.42-162.66-105.96-192.5-198.16ZM495.08,681.07c19.01-38.16,45.44-81.46,85.1-122.9,34.81-36.36,73.66-59.25,104.37-73.17-29.76,90.76-100.09,163.31-189.47,196.07Z"/>
  <path class="b" d="M388,296.41c37.72,0,68.41-30.69,68.41-68.41s-30.69-68.41-68.41-68.41-68.41,30.69-68.41,68.41,30.69,68.41,68.41,68.41Z"/>
</svg>